<svg xmlns="http://www.w3.org/2000/svg" xmlns:xlink="http://www.w3.org/1999/xlink" viewBox="0 0 476 106"><g id="Template_tube.png" data-name="Template tube.png"><image width="476" height="106" xlink:href="tube.png"/></g><g id="Layer_1" data-name="Layer 1"><path d="M281.56,359h-95A28.56,28.56,0,0,1,158,330.44V281.56A28.56,28.56,0,0,1,186.56,253h95a28.56,28.56,0,0,1,28.56,28.56v48.88A28.56,28.56,0,0,1,281.56,359Zm-22.48-52.35-40.62-23.32V330Z" transform="translate(-158 -253)" style="fill:#ed1c24"/><path d="M325.06,262l14.21-.38,10,45.7L358.47,262H372.3q-.39,44.94-.77,89.86l-11.52.38-.39-51.07-9.21,26.11q-6.35-14.4-12.67-28.8l-.39,53.38-11.13-.38Z" transform="translate(-158 -253)" style="fill:#231f20;stroke:#231f20;stroke-miterlimit:10;stroke-width:0.75px"/><path d="M379.21,261.26l-.39,89.85L410.31,350q.39-7.29.77-14.59H388q-.19-10.75-.38-21.51h22.65q-.19-8.64-.38-17.28l-23-1.53q-.39-10.19-.77-20.35l22.66-1.16q-.39-6.53-.77-13.05Z" transform="translate(-158 -253)" style="fill:#231f20;stroke:#231f20;stroke-miterlimit:10;stroke-width:0.75px"/><path d="M420.92,264.3l-.39,11.13,14.6.77q.18,39,.38,77.95h14.21l.38-77.56,14.59-.39q-.37-6.13-.76-12.29Z" transform="translate(-158 -253)" style="fill:#231f20;stroke:#231f20;stroke-miterlimit:10;stroke-width:0.75px"/><path d="M460.09,287.87l1.53,58.37c.28.79,2.61,7,9.22,9.22a14.71,14.71,0,0,0,10-.39q2.87-1.92,5.72-3.85a9.86,9.86,0,0,0,.81-1.14,11.52,11.52,0,0,0,1.54-4.22v8.83h11.52V287.87H487l.38,52.23A6.26,6.26,0,0,1,475.83,342q-.19-26.88-.38-53.76Z" transform="translate(-158 -253)" style="fill:#231f20;stroke:#231f20;stroke-miterlimit:10;stroke-width:0.75px"/><path d="M525.37,259.84v35l4.6-3.46c.68-.82,3.45-4,7.68-4.22A10.21,10.21,0,0,1,543.8,289c8.42,5.42,8.09,24.74,8.06,25.72a89.25,89.25,0,0,1-1.15,28c-.48,2.44-1.3,5.93-4.22,8.44a14.64,14.64,0,0,1-8.07,3.08,15.65,15.65,0,0,1-7.68-.77,15,15,0,0,1-6.91-5.38c-.38,1.92-.77,3.84-1.15,5.76l-12.29-.38v-93.7Zm-1.16,41.86c-.92,8.55-2.42,26.37.39,37.63.72,2.89,1.79,5.34,3.84,6.14,3.1,1.23,7.42-.73,8.83-5q.39-18.24.77-36.48c.29-4.43-3.13-8-6.91-8.06A7.32,7.32,0,0,0,524.21,301.7Z" transform="translate(-158 -253)" style="fill:#231f20;stroke:#231f20;stroke-miterlimit:10;stroke-width:0.75px"/><path d="M596.79,334.34a16,16,0,0,1,.38,9.6,16.4,16.4,0,0,1-5.76,8.45c-6.69,5.05-14.86,2.58-15.74,2.3a13.79,13.79,0,0,1-14.21-14.21l-.38-28.8a31.72,31.72,0,0,1,1.53-13.82c1-2.78,1.88-5.24,4.23-7.3,4.12-3.61,9.55-3.24,11.13-3.07,2.3-.64,7,.75,11.14,3.07,4.56,2.56,5.91,5.29,7.68,12.29a74.2,74.2,0,0,1,2.12,21.89l-25.16.38v16.13a5.8,5.8,0,0,0,11.14.77l.38-7.68Zm-23.42-16.9H584.5q.39-7.87.77-15.74a6.26,6.26,0,0,0-6.53-5,6.11,6.11,0,0,0-5,4.22Q573.56,309.18,573.37,317.44Z" transform="translate(-158 -253)" style="fill:#231f20;stroke:#231f20;stroke-miterlimit:10;stroke-width:0.75px"/></g></svg>